<?xml version="1.0" encoding="UTF-8" standalone="no"?>
<!-- Created with Inkscape (http://www.inkscape.org/) -->

<svg
   xmlns:osb="http://www.openswatchbook.org/uri/2009/osb"
   xmlns:dc="http://purl.org/dc/elements/1.1/"
   xmlns:cc="http://creativecommons.org/ns#"
   xmlns:rdf="http://www.w3.org/1999/02/22-rdf-syntax-ns#"
   xmlns:svg="http://www.w3.org/2000/svg"
   xmlns="http://www.w3.org/2000/svg"
   xmlns:xlink="http://www.w3.org/1999/xlink"
   xmlns:sodipodi="http://sodipodi.sourceforge.net/DTD/sodipodi-0.dtd"
   xmlns:inkscape="http://www.inkscape.org/namespaces/inkscape"
   width="177.16534"
   height="70.866142"
   id="svg2"
   version="1.1"
   inkscape:version="0.48.3.1 r9886"
   sodipodi:docname="pcb+layout.svg"
   style="display:inline"
   inkscape:export-filename="/Users/feka/+Projects/breadboard tap/folia3.png"
   inkscape:export-xdpi="599.86334"
   inkscape:export-ydpi="599.86334">
  <defs
     id="defs4">
    <inkscape:path-effect
       effect="skeletal"
       id="path-effect4297"
       is_visible="true"
       pattern="M 0,0 0,10 10,5 z"
       copytype="single_stretched"
       prop_scale="1"
       scale_y_rel="false"
       spacing="0"
       normal_offset="0"
       tang_offset="0"
       prop_units="false"
       vertical_pattern="false"
       fuse_tolerance="0" />
    <inkscape:path-effect
       effect="spiro"
       id="path-effect4295"
       is_visible="true" />
    <inkscape:path-effect
       effect="skeletal"
       id="path-effect4290"
       is_visible="true"
       pattern="M 0,0 0,10 10,5 z"
       copytype="single_stretched"
       prop_scale="1"
       scale_y_rel="false"
       spacing="0"
       normal_offset="0"
       tang_offset="0"
       prop_units="false"
       vertical_pattern="false"
       fuse_tolerance="0" />
    <inkscape:path-effect
       effect="spiro"
       id="path-effect4288"
       is_visible="true" />
    <inkscape:path-effect
       effect="skeletal"
       id="path-effect4284"
       is_visible="true"
       pattern="M 0,0 0,10 10,5 z"
       copytype="single_stretched"
       prop_scale="1"
       scale_y_rel="false"
       spacing="0"
       normal_offset="0"
       tang_offset="0"
       prop_units="false"
       vertical_pattern="false"
       fuse_tolerance="0" />
    <inkscape:path-effect
       effect="spiro"
       id="path-effect4282"
       is_visible="true" />
    <inkscape:path-effect
       effect="skeletal"
       id="path-effect4278"
       is_visible="true"
       pattern="M 0,0 0,10 10,5 z"
       copytype="single_stretched"
       prop_scale="1"
       scale_y_rel="false"
       spacing="0"
       normal_offset="0"
       tang_offset="0"
       prop_units="false"
       vertical_pattern="false"
       fuse_tolerance="0" />
    <inkscape:path-effect
       effect="spiro"
       id="path-effect4276"
       is_visible="true" />
    <inkscape:path-effect
       effect="skeletal"
       id="path-effect4272"
       is_visible="true"
       pattern="M 0,0 0,10 10,5 z"
       copytype="single_stretched"
       prop_scale="1"
       scale_y_rel="false"
       spacing="0"
       normal_offset="0"
       tang_offset="0"
       prop_units="false"
       vertical_pattern="false"
       fuse_tolerance="0" />
    <inkscape:path-effect
       effect="spiro"
       id="path-effect4270"
       is_visible="true" />
    <linearGradient
       id="linearGradient4257"
       osb:paint="solid">
      <stop
         style="stop-color:#ffffff;stop-opacity:1;"
         offset="0"
         id="stop4259" />
    </linearGradient>
    <linearGradient
       id="linearGradient4306"
       osb:paint="solid">
      <stop
         style="stop-color:#000000;stop-opacity:1;"
         offset="0"
         id="stop4308" />
    </linearGradient>
    <inkscape:perspective
       sodipodi:type="inkscape:persp3d"
       inkscape:vp_x="0 : 526.18109 : 1"
       inkscape:vp_y="0 : 1000 : 0"
       inkscape:vp_z="744.09448 : 526.18109 : 1"
       inkscape:persp3d-origin="372.04724 : 350.78739 : 1"
       id="perspective10" />
    <inkscape:perspective
       id="perspective5801"
       inkscape:persp3d-origin="0.5 : 0.33333333 : 1"
       inkscape:vp_z="1 : 0.5 : 1"
       inkscape:vp_y="0 : 1000 : 0"
       inkscape:vp_x="0 : 0.5 : 1"
       sodipodi:type="inkscape:persp3d" />
    <inkscape:perspective
       sodipodi:type="inkscape:persp3d"
       inkscape:vp_x="0 : 0.5 : 1"
       inkscape:vp_y="0 : 1000 : 0"
       inkscape:vp_z="1 : 0.5 : 1"
       inkscape:persp3d-origin="0.5 : 0.33333333 : 1"
       id="perspective5801-8" />
    <inkscape:perspective
       id="perspective10-9"
       inkscape:persp3d-origin="372.04724 : 350.78739 : 1"
       inkscape:vp_z="744.09448 : 526.18109 : 1"
       inkscape:vp_y="0 : 1000 : 0"
       inkscape:vp_x="0 : 526.18109 : 1"
       sodipodi:type="inkscape:persp3d" />
    <inkscape:perspective
       sodipodi:type="inkscape:persp3d"
       inkscape:vp_x="0 : 0.5 : 1"
       inkscape:vp_y="0 : 1000 : 0"
       inkscape:vp_z="1 : 0.5 : 1"
       inkscape:persp3d-origin="0.5 : 0.33333333 : 1"
       id="perspective5801-1" />
    <inkscape:perspective
       id="perspective10-6"
       inkscape:persp3d-origin="372.04724 : 350.78739 : 1"
       inkscape:vp_z="744.09448 : 526.18109 : 1"
       inkscape:vp_y="0 : 1000 : 0"
       inkscape:vp_x="0 : 526.18109 : 1"
       sodipodi:type="inkscape:persp3d" />
    <filter
       id="filter4205"
       inkscape:label="Cutout"
       x="0"
       y="0"
       width="1"
       height="1"
       inkscape:menu="Shadows and Glows"
       inkscape:menu-tooltip="Drop shadow under the cut-out of the shape"
       color-interpolation-filters="sRGB">
      <feGaussianBlur
         id="feGaussianBlur4207"
         in="SourceAlpha"
         stdDeviation="4.2" />
      <feOffset
         id="feOffset4209"
         dy="5"
         dx="5"
         result="result91" />
      <feComposite
         id="feComposite4211"
         in2="result91"
         operator="out"
         in="SourceGraphic" />
    </filter>
    <linearGradient
       inkscape:collect="always"
       xlink:href="#linearGradient4257"
       id="linearGradient4261"
       x1="-1.5216535"
       y1="35.116142"
       x2="20.771654"
       y2="35.116142"
       gradientUnits="userSpaceOnUse"
       gradientTransform="translate(0,78.202787)" />
  </defs>
  <sodipodi:namedview
     id="base"
     pagecolor="#ffffff"
     bordercolor="#666666"
     borderopacity="1.0"
     inkscape:pageopacity="0.0"
     inkscape:pageshadow="2"
     inkscape:zoom="5.9909572"
     inkscape:cx="80.649597"
     inkscape:cy="31.155422"
     inkscape:document-units="mm"
     inkscape:current-layer="g4090"
     showgrid="true"
     units="mm"
     objecttolerance="5"
     showguides="true"
     inkscape:guide-bbox="true"
     guidetolerance="10000"
     gridtolerance="6"
     inkscape:window-width="1024"
     inkscape:window-height="575"
     inkscape:window-x="0"
     inkscape:window-y="0"
     inkscape:window-maximized="1"
     inkscape:snap-grids="false"
     inkscape:snap-page="false"
     inkscape:snap-bbox="false"
     inkscape:snap-nodes="false"
     inkscape:object-paths="true"
     inkscape:snap-to-guides="false">
    <inkscape:grid
       type="xygrid"
       id="grid2816"
       empspacing="5"
       visible="true"
       enabled="true"
       snapvisiblegridlinesonly="true"
       units="mm"
       spacingx="0.5mm"
       spacingy="0.5mm"
       originx="0mm"
       originy="0mm" />
  </sodipodi:namedview>
  <metadata
     id="metadata7">
    <rdf:RDF>
      <cc:Work
         rdf:about="">
        <dc:format>image/svg+xml</dc:format>
        <dc:type
           rdf:resource="http://purl.org/dc/dcmitype/StillImage" />
        <dc:title />
      </cc:Work>
    </rdf:RDF>
  </metadata>
  <g
     transform="translate(0,-77.952787)"
     style="display:inline"
     inkscape:label="component-bottom"
     id="g3113"
     inkscape:groupmode="layer">
    <g
       transform="matrix(-1,0,0,-1,173.03879,223.02323)"
       id="g3115"
       inkscape:transform-center-x="-71.529739"
       inkscape:transform-center-y="-21.519813">
      <path
         transform="matrix(0,0.16663981,-0.16663981,0,20.30714,117.57565)"
         d="m 92.125984,70.866135 a 10.629921,10.629921 0 1 1 -21.259842,0 10.629921,10.629921 0 1 1 21.259842,0 z"
         sodipodi:ry="10.629921"
         sodipodi:rx="10.629921"
         sodipodi:cy="70.866135"
         sodipodi:cx="81.496063"
         id="path3117"
         style="fill:#ff9600;fill-opacity:1;stroke:none"
         sodipodi:type="arc" />
      <path
         sodipodi:type="arc"
         style="fill:#ff9600;fill-opacity:1;stroke:none"
         id="path3119"
         sodipodi:cx="81.496063"
         sodipodi:cy="70.866135"
         sodipodi:rx="10.629921"
         sodipodi:ry="10.629921"
         d="m 92.125984,70.866135 a 10.629921,10.629921 0 1 1 -21.259842,0 10.629921,10.629921 0 1 1 21.259842,0 z"
         transform="matrix(0,0.16663981,-0.16663981,0,29.165694,117.57594)" />
      <path
         inkscape:connector-curvature="0"
         id="path3121"
         d="m 4.9547141,129.38477 0,3.54331 1.7716535,1.77165 3.5433074,0 1.771653,-1.77165 1.771654,0 1.771653,1.77165 3.543307,0 1.771654,-1.77165 0,-3.54331 -1.771654,-1.77165 -3.543307,0 -1.771653,1.77165 -1.771654,0 -1.771653,-1.77165 -3.5433074,0 -1.7716535,1.77165"
         style="fill:none;stroke:#000000;stroke-width:0.29055119;stroke-linecap:butt;stroke-linejoin:miter;stroke-miterlimit:4;stroke-opacity:1;stroke-dasharray:none" />
      <path
         sodipodi:type="arc"
         style="fill:#ff9600;fill-opacity:1;stroke:none"
         id="path3123"
         sodipodi:cx="81.496063"
         sodipodi:cy="70.866135"
         sodipodi:rx="10.629921"
         sodipodi:ry="10.629921"
         d="m 92.125984,70.866135 a 10.629921,10.629921 0 1 1 -21.259842,0 10.629921,10.629921 0 1 1 21.259842,0 z"
         transform="matrix(0,0.16663981,-0.16663981,0,20.30714,117.57565)" />
      <path
         transform="matrix(0,0.16663981,-0.16663981,0,29.165694,117.57594)"
         d="m 92.125984,70.866135 a 10.629921,10.629921 0 1 1 -21.259842,0 10.629921,10.629921 0 1 1 21.259842,0 z"
         sodipodi:ry="10.629921"
         sodipodi:rx="10.629921"
         sodipodi:cy="70.866135"
         sodipodi:cx="81.496063"
         id="path3125"
         style="fill:#ff9600;fill-opacity:1;stroke:none"
         sodipodi:type="arc" />
    </g>
    <g
       transform="matrix(-1,0,0,-1,173.16379,230.02323)"
       id="g3127"
       inkscape:transform-center-x="-71.654739"
       inkscape:transform-center-y="22.684912">
      <a
         transform="translate(-0.3605326,15.999216)"
         id="a3129">
        <path
           inkscape:connector-curvature="0"
           id="path3131"
           d="m 5.3152466,76.180829 0,3.54331 1.7716535,1.77165 3.5433069,0 1.771654,-1.77165 1.771653,0 1.771654,1.77165 3.543307,0 1.771654,-1.77165 0,-3.54331 -1.771654,-1.77165 -3.543307,0 -1.771654,1.77165 -1.771653,0 -1.771654,-1.77165 -3.5433069,0 -1.7716535,1.77165"
           style="fill:none;stroke:#000000;stroke-width:0.29055119;stroke-linecap:butt;stroke-linejoin:miter;stroke-miterlimit:4;stroke-opacity:1;stroke-dasharray:none" />
      </a>
      <path
         transform="matrix(0,0.16663981,-0.16663981,0,29.165693,80.37121)"
         d="m 92.125984,70.866135 a 10.629921,10.629921 0 1 1 -21.259842,0 10.629921,10.629921 0 1 1 21.259842,0 z"
         sodipodi:ry="10.629921"
         sodipodi:rx="10.629921"
         sodipodi:cy="70.866135"
         sodipodi:cx="81.496063"
         id="path3133"
         style="fill:#ff9600;fill-opacity:1;stroke:none"
         sodipodi:type="arc" />
      <path
         sodipodi:type="arc"
         style="fill:#ff9600;fill-opacity:1;stroke:none"
         id="path3135"
         sodipodi:cx="81.496063"
         sodipodi:cy="70.866135"
         sodipodi:rx="10.629921"
         sodipodi:ry="10.629921"
         d="m 92.125984,70.866135 a 10.629921,10.629921 0 1 1 -21.259842,0 10.629921,10.629921 0 1 1 21.259842,0 z"
         transform="matrix(0,0.16663981,-0.16663981,0,20.307425,80.37121)" />
    </g>
    <g
       id="g3988"
       inkscape:transform-center-x="11.885618"
       inkscape:transform-center-y="-18.205286"
       transform="matrix(-1,0,0,-1,177.16379,226.77323)">
      <path
         sodipodi:type="arc"
         style="fill:#ff9600;fill-opacity:1;stroke:none"
         id="path3139"
         sodipodi:cx="81.496063"
         sodipodi:cy="70.866135"
         sodipodi:rx="10.629921"
         sodipodi:ry="10.629921"
         d="m 92.125984,70.866135 a 10.629921,10.629921 0 1 1 -21.259842,0 10.629921,10.629921 0 1 1 21.259842,0 z"
         transform="matrix(0,0.16663981,-0.16663981,0,112.27663,109.153)" />
      <path
         transform="matrix(0,0.16663981,-0.16663981,0,112.27634,126.86982)"
         d="m 92.125984,70.866135 a 10.629921,10.629921 0 1 1 -21.259842,0 10.629921,10.629921 0 1 1 21.259842,0 z"
         sodipodi:ry="10.629921"
         sodipodi:rx="10.629921"
         sodipodi:cy="70.866135"
         sodipodi:cx="81.496063"
         id="path3141"
         style="fill:#ff9600;fill-opacity:1;stroke:none"
         sodipodi:type="arc" />
      <path
         inkscape:connector-curvature="0"
         style="fill:none;stroke:#000000;stroke-width:0.35433072;stroke-miterlimit:4;stroke-opacity:1;stroke-dasharray:none"
         d="m 100.46751,122.73319 3.54331,-0.003 0,17.7195 -3.54331,0 -3.543307,0 0.0012,-17.7195 z"
         id="path3143"
         sodipodi:nodetypes="ccccccc" />
      <path
         inkscape:connector-curvature="0"
         id="path3145"
         d="m 100.46751,122.70518 0,8.16996 -1.771654,0 3.543304,0 0,0 0,0"
         style="fill:none;stroke:#000000;stroke-width:0.31197038;stroke-linecap:butt;stroke-linejoin:miter;stroke-miterlimit:4;stroke-opacity:1;stroke-dasharray:none" />
      <path
         sodipodi:nodetypes="cccc"
         inkscape:connector-curvature="0"
         id="path3147"
         d="m 100.58477,140.37324 0,-7.9482 -1.771655,0 3.543305,0"
         style="fill:none;stroke:#000000;stroke-width:0.27522182;stroke-linecap:butt;stroke-linejoin:miter;stroke-miterlimit:4;stroke-opacity:1;stroke-dasharray:none" />
    </g>
    <g
       id="g3995"
       inkscape:transform-center-x="-29.379148"
       inkscape:transform-center-y="-18.329426"
       transform="matrix(-1,0,0,-1,177.16379,226.77323)">
      <g
         transform="translate(-15.206703,73.251312)"
         id="g3151">
        <path
           sodipodi:type="arc"
           style="fill:#ff9600;fill-opacity:1;stroke:none"
           id="path3154"
           sodipodi:cx="81.496063"
           sodipodi:cy="70.866135"
           sodipodi:rx="10.629921"
           sodipodi:ry="10.629921"
           d="m 92.125984,70.866135 a 10.629921,10.629921 0 1 1 -21.259842,0 10.629921,10.629921 0 1 1 21.259842,0 z"
           transform="matrix(0,0.16663981,-0.16663981,0,86.218854,36.025827)" />
        <path
           transform="matrix(0,0.16663981,-0.16663981,0,86.218568,53.742648)"
           d="m 92.125984,70.866135 a 10.629921,10.629921 0 1 1 -21.259842,0 10.629921,10.629921 0 1 1 21.259842,0 z"
           sodipodi:ry="10.629921"
           sodipodi:rx="10.629921"
           sodipodi:cy="70.866135"
           sodipodi:cx="81.496063"
           id="path3156"
           style="fill:#ff9600;fill-opacity:1;stroke:none"
           sodipodi:type="arc" />
        <path
           inkscape:connector-curvature="0"
           style="fill:none;stroke:#000000;stroke-width:0.35433072;stroke-miterlimit:4;stroke-opacity:1;stroke-dasharray:none"
           d="m 74.409449,49.609175 3.543307,-0.0029 0,17.716556 -3.543307,0 -3.543307,0 0.0012,-17.716556 z"
           id="path3158"
           sodipodi:nodetypes="ccccccc" />
      </g>
    </g>
  </g>
  <g
     inkscape:groupmode="layer"
     id="layer3"
     inkscape:label="component-top"
     style="display:inline"
     transform="translate(0,-77.952787)">
    <g
       id="g3986"
       transform="matrix(-1,0,0,-1,177.16379,225.77323)"
       inkscape:transform-center-x="-67.740855"
       inkscape:transform-center-y="-0.16745391">
      <path
         transform="matrix(0,-0.16663981,0.3333199,0,7.791309,126.1868)"
         d="m 92.125984,70.866135 a 10.629921,10.629921 0 1 1 -21.259842,0 10.629921,10.629921 0 1 1 21.259842,0 z"
         sodipodi:ry="10.629921"
         sodipodi:rx="10.629921"
         sodipodi:cy="70.866135"
         sodipodi:cx="81.496063"
         id="path4290"
         style="fill:#ff9600;fill-opacity:1;stroke:none"
         sodipodi:type="arc" />
      <path
         sodipodi:type="arc"
         style="fill:#ff9600;fill-opacity:1;stroke:none"
         id="path4292"
         sodipodi:cx="81.496063"
         sodipodi:cy="70.866135"
         sodipodi:rx="10.629921"
         sodipodi:ry="10.629921"
         d="m 92.125984,70.866135 a 10.629921,10.629921 0 1 1 -21.259842,0 10.629921,10.629921 0 1 1 21.259842,0 z"
         transform="matrix(0,-0.16663981,0.3333199,0,-13.351417,134.92752)" />
      <path
         transform="matrix(0,-0.16663981,0.3333199,0,-13.351417,117.22432)"
         d="m 92.125984,70.866135 a 10.629921,10.629921 0 1 1 -21.259842,0 10.629921,10.629921 0 1 1 21.259842,0 z"
         sodipodi:ry="10.629921"
         sodipodi:rx="10.629921"
         sodipodi:cy="70.866135"
         sodipodi:cx="81.496063"
         id="path4294"
         style="fill:#ff9600;fill-opacity:1;stroke:none"
         sodipodi:type="arc" />
      <path
         sodipodi:nodetypes="ccccccc"
         id="path4261"
         d="m 29.757865,112.55406 0.0029,13.28741 -17.719436,0 0,-13.28741 0,-13.287398 17.719436,0.0045 z"
         style="fill:#001590;fill-opacity:0.52244897;stroke:none"
         inkscape:connector-curvature="0" />
    </g>
    <g
       id="g3960"
       transform="matrix(-1.296333,0,0,-1.1879135,179.80702,244.31576)"
       inkscape:transform-center-x="-7.8092553"
       inkscape:transform-center-y="-13.154925">
      <g
         id="g4005"
         transform="translate(0,-3.3672486)">
        <path
           inkscape:connector-curvature="0"
           style="fill:#ff9600;fill-opacity:1;stroke:none"
           d="m 69.576899,118.45021 0.0017,3.30013 -10.445841,0 0,-3.30013 0,-4.3043 10.445841,9.8e-4 z"
           id="path4304"
           sodipodi:nodetypes="ccccccc" />
        <path
           sodipodi:nodetypes="ccccccc"
           id="path4323"
           d="m 59.032602,132.60532 2.88e-4,2.5667 -1.771942,0 0,-2.5667 0,-2.5667 1.771942,8.8e-4 z"
           style="fill:#ff9600;fill-opacity:1;stroke:none"
           inkscape:connector-curvature="0" />
        <path
           inkscape:connector-curvature="0"
           style="fill:#ff9600;fill-opacity:1;stroke:none"
           d="m 65.176758,132.60532 2.88e-4,2.5667 -1.771942,0 0,-2.5667 0,-2.5667 1.771942,8.8e-4 z"
           id="path4325"
           sodipodi:nodetypes="ccccccc" />
        <path
           sodipodi:nodetypes="ccccccc"
           id="path4327"
           d="m 71.434176,132.60532 2.88e-4,2.5667 -1.771942,0 0,-2.5667 0,-2.5667 1.771942,8.8e-4 z"
           style="fill:#ff9600;fill-opacity:1;stroke:none"
           inkscape:connector-curvature="0" />
        <path
           sodipodi:nodetypes="ccccccc"
           id="path3403"
           d="m 73.20294,125.40629 0.0029,5.49945 -17.716556,0 0,-5.49945 0,-5.49945 17.716556,0.002 z"
           style="fill:#001590;fill-opacity:0.52244897;stroke:none"
           inkscape:connector-curvature="0" />
      </g>
    </g>
    <g
       id="g3987"
       transform="matrix(-1,0,0,-1,146.91379,239.52323)"
       inkscape:transform-center-x="55.965646"
       inkscape:transform-center-y="10.234651">
      <path
         inkscape:connector-curvature="0"
         style="fill:#001590;fill-opacity:0.52244897;stroke:none"
         d="m 114.04723,91.179475 17.71654,-0.0082 0,49.606305 -17.71654,0 -17.716533,0 0.0057,-49.606305 z"
         id="path3425"
         sodipodi:nodetypes="ccccccc" />
      <path
         sodipodi:type="arc"
         style="fill:none;stroke:#000000;stroke-width:0.35433072;stroke-linejoin:round;stroke-miterlimit:4;stroke-opacity:0.96135266;stroke-dasharray:2.12598429, 0.70866144;stroke-dashoffset:0"
         id="path4219"
         sodipodi:cx="83.267715"
         sodipodi:cy="182.48032"
         sodipodi:rx="3.5433071"
         sodipodi:ry="3.5433071"
         d="m 86.811023,182.48032 a 3.5433071,3.5433071 0 1 1 -7.086615,0 3.5433071,3.5433071 0 1 1 7.086615,0 z"
         transform="matrix(0.66666667,0,0,0.66666667,58.673009,-15.835927)" />
      <path
         inkscape:connector-curvature="0"
         style="fill:#ff9600;fill-opacity:1;stroke:none;display:inline"
         d="m 100.62231,106.35329 0.002,2.65748 -10.62992,0 0,-2.65748 0,-2.65748 10.62992,9e-4 z"
         id="path4329"
         sodipodi:nodetypes="ccccccc" />
      <path
         sodipodi:nodetypes="ccccccc"
         id="path4331"
         d="m 138.59869,106.24218 0.002,2.65748 -10.62993,0 0,-2.65748 0,-2.65748 10.62993,9e-4 z"
         style="fill:#ff9600;fill-opacity:1;stroke:none;display:inline"
         inkscape:connector-curvature="0" />
      <path
         inkscape:connector-curvature="0"
         style="fill:#ff9600;fill-opacity:1;stroke:none;display:inline"
         d="m 138.37817,127.61313 0.002,2.65748 -10.62993,0 0,-2.65748 0,-2.65748 10.62993,9e-4 z"
         id="path4333"
         sodipodi:nodetypes="ccccccc" />
      <path
         sodipodi:nodetypes="ccccccc"
         id="path4335"
         d="m 100.62401,127.61313 0.002,2.65748 -10.62992,0 0,-2.65748 0,-2.65748 10.62992,9e-4 z"
         style="fill:#ff9600;fill-opacity:1;stroke:none;display:inline"
         inkscape:connector-curvature="0" />
      <path
         transform="matrix(0.80952381,0,0,0.80952381,46.709167,-23.834326)"
         d="m 86.811023,182.48032 a 3.5433071,3.5433071 0 1 1 -7.086615,0 3.5433071,3.5433071 0 1 1 7.086615,0 z"
         sodipodi:ry="3.5433071"
         sodipodi:rx="3.5433071"
         sodipodi:cy="182.48032"
         sodipodi:cx="83.267715"
         id="path4228"
         style="fill:none;stroke:#000000;stroke-width:0.35433072;stroke-linejoin:round;stroke-miterlimit:4;stroke-opacity:0.96135266;stroke-dasharray:2.12598434, 0.70866144;stroke-dashoffset:0"
         sodipodi:type="arc" />
      <path
         inkscape:connector-curvature="0"
         id="path4231"
         d="m 110.50392,127.39033 c 7.08662,-7.08661 7.08662,-7.08661 7.08662,-7.08661"
         style="fill:none;stroke:#000000;stroke-width:0.29055116;stroke-linecap:butt;stroke-linejoin:miter;stroke-miterlimit:4;stroke-opacity:1;stroke-dasharray:none" />
      <path
         sodipodi:type="arc"
         style="fill:none;stroke:#000000;stroke-width:0.29055119;stroke-linejoin:round;stroke-miterlimit:4;stroke-opacity:0.96135266;stroke-dasharray:none;stroke-dashoffset:0"
         id="path4233"
         sodipodi:cx="61.122047"
         sodipodi:cy="186.02362"
         sodipodi:rx="7.9724407"
         sodipodi:ry="7.0866141"
         d="m 69.094488,186.02362 a 7.9724407,7.0866141 0 0 1 -15.943017,0.15325"
         transform="matrix(1.1111111,0,0,1,46.133846,-80.670928)"
         sodipodi:start="0"
         sodipodi:end="3.1199657"
         sodipodi:open="true" />
      <path
         style="fill:none;stroke:#000000;stroke-width:0.3062678;stroke-linecap:butt;stroke-linejoin:miter;stroke-miterlimit:4;stroke-opacity:1;stroke-dasharray:none"
         d="m 122.9055,91.179475 0,14.173225 0,0 0,0"
         id="path4235"
         inkscape:connector-curvature="0"
         sodipodi:nodetypes="cccc" />
      <path
         inkscape:connector-curvature="0"
         id="path4259"
         d="m 105.18896,91.179475 0,14.173225 0,0 0,0"
         style="fill:none;stroke:#000000;stroke-width:0.3062678;stroke-linecap:butt;stroke-linejoin:miter;stroke-miterlimit:4;stroke-opacity:1;stroke-dasharray:none"
         sodipodi:nodetypes="cccc" />
      <path
         style="fill:none;stroke:#000000;stroke-width:0.21178076;stroke-linecap:butt;stroke-linejoin:miter;stroke-miterlimit:4;stroke-opacity:1;stroke-dasharray:none"
         d="m 111.57564,108.65194 c 5.1654,-5.16539 5.1654,-5.16539 5.1654,-5.16539"
         id="path3984"
         inkscape:connector-curvature="0" />
    </g>
  </g>
  <g
     transform="translate(0,-77.952787)"
     style="opacity:0.4;display:inline"
     inkscape:label="foil"
     id="g4090"
     inkscape:groupmode="layer">
    <g
       transform="matrix(-1,0,0,-1,179.85711,139.74302)"
       id="g4094"
       inkscape:transform-center-x="-29.248283"
       inkscape:transform-center-y="-9.085645">
      <path
         transform="matrix(0,-0.16666675,0.16666675,0,50.196836,49.015746)"
         d="m 92.125984,70.866135 a 10.629921,10.629921 0 1 1 -21.259842,0 10.629921,10.629921 0 1 1 21.259842,0 z"
         sodipodi:ry="10.629921"
         sodipodi:rx="10.629921"
         sodipodi:cy="70.866135"
         sodipodi:cx="81.496063"
         id="path4096"
         style="fill:none;stroke:none;display:inline"
         sodipodi:type="arc" />
      <path
         inkscape:connector-curvature="0"
         style="fill:#000000;fill-opacity:1;display:inline"
         d="m 62.011306,31.957672 c -1.94747,0 -3.46875,1.521325 -3.46875,3.46875 0,1.947426 1.52128,3.5 3.46875,3.5 1.94743,0 3.5,-1.552574 3.5,-3.5 0,-1.947425 -1.55257,-3.46875 -3.5,-3.46875 z m 0,3.03125 c 0.24503,0 0.46875,0.19247 0.46875,0.4375 0,0.245031 -0.22372,0.46875 -0.46875,0.46875 -0.24503,0 -0.4375,-0.223719 -0.4375,-0.46875 0,-0.24503 0.19247,-0.4375 0.4375,-0.4375 z"
         id="path4098" />
    </g>
    <g
       id="g4100"
       transform="matrix(-1,0,0,-1,180.03388,121.49616)"
       inkscape:transform-center-x="-29.425053"
       inkscape:transform-center-y="-27.332505">
      <path
         sodipodi:type="arc"
         style="fill:none;stroke:none;display:inline"
         id="path4102"
         sodipodi:cx="81.496063"
         sodipodi:cy="70.866135"
         sodipodi:rx="10.629921"
         sodipodi:ry="10.629921"
         d="m 92.125984,70.866135 a 10.629921,10.629921 0 1 1 -21.259842,0 10.629921,10.629921 0 1 1 21.259842,0 z"
         transform="matrix(0,-0.16666675,0.16666675,0,50.196836,49.015746)" />
      <path
         id="path4104"
         d="m 62.011306,31.957672 c -1.94747,0 -3.46875,1.521325 -3.46875,3.46875 0,1.947426 1.52128,3.5 3.46875,3.5 1.94743,0 3.5,-1.552574 3.5,-3.5 0,-1.947425 -1.55257,-3.46875 -3.5,-3.46875 z m 0,3.03125 c 0.24503,0 0.46875,0.19247 0.46875,0.4375 0,0.245031 -0.22372,0.46875 -0.46875,0.46875 -0.24503,0 -0.4375,-0.223719 -0.4375,-0.46875 0,-0.24503 0.19247,-0.4375 0.4375,-0.4375 z"
         style="fill:#000000;fill-opacity:1;display:inline"
         inkscape:connector-curvature="0" />
    </g>
    <g
       transform="matrix(-1.0761012,0,0,-1.8117459,222.38144,155.57717)"
       id="g4106"
       inkscape:transform-center-x="-67.052289"
       inkscape:transform-center-y="-22.02143">
      <path
         transform="matrix(0,-0.16666675,0.16666675,0,50.196836,49.015746)"
         d="m 92.125984,70.866135 a 10.629921,10.629921 0 1 1 -21.259842,0 10.629921,10.629921 0 1 1 21.259842,0 z"
         sodipodi:ry="10.629921"
         sodipodi:rx="10.629921"
         sodipodi:cy="70.866135"
         sodipodi:cx="81.496063"
         id="path4108"
         style="fill:none;stroke:none;display:inline"
         sodipodi:type="arc" />
      <path
         inkscape:connector-curvature="0"
         style="fill:#000000;fill-opacity:1;display:inline"
         d="m 62.011306,31.957672 c -1.94747,0 -3.46875,1.521325 -3.46875,3.46875 0,1.947426 1.52128,3.5 3.46875,3.5 1.94743,0 3.5,-1.552574 3.5,-3.5 0,-1.947425 -1.55257,-3.46875 -3.5,-3.46875 z m 0,3.03125 c 0.24503,0 0.46875,0.19247 0.46875,0.4375 0,0.245031 -0.22372,0.46875 -0.46875,0.46875 -0.24503,0 -0.4375,-0.223719 -0.4375,-0.46875 0,-0.24503 0.19247,-0.4375 0.4375,-0.4375 z"
         id="path4110" />
    </g>
    <g
       id="g4130"
       transform="matrix(-1,0,0,-1,138.77495,139.56625)"
       inkscape:transform-center-x="11.833877"
       inkscape:transform-center-y="-9.262415">
      <path
         sodipodi:type="arc"
         style="fill:none;stroke:none;display:inline"
         id="path4132"
         sodipodi:cx="81.496063"
         sodipodi:cy="70.866135"
         sodipodi:rx="10.629921"
         sodipodi:ry="10.629921"
         d="m 92.125984,70.866135 a 10.629921,10.629921 0 1 1 -21.259842,0 10.629921,10.629921 0 1 1 21.259842,0 z"
         transform="matrix(0,-0.16666675,0.16666675,0,50.196836,49.015746)" />
      <path
         id="path4134"
         d="m 62.011306,31.957672 c -1.94747,0 -3.46875,1.521325 -3.46875,3.46875 0,1.947426 1.52128,3.5 3.46875,3.5 1.94743,0 3.5,-1.552574 3.5,-3.5 0,-1.947425 -1.55257,-3.46875 -3.5,-3.46875 z m 0,3.03125 c 0.24503,0 0.46875,0.19247 0.46875,0.4375 0,0.245031 -0.22372,0.46875 -0.46875,0.46875 -0.24503,0 -0.4375,-0.223719 -0.4375,-0.46875 0,-0.24503 0.19247,-0.4375 0.4375,-0.4375 z"
         style="fill:#000000;fill-opacity:1;display:inline"
         inkscape:connector-curvature="0" />
    </g>
    <g
       transform="matrix(-1,0,0,-1,138.59818,122.02649)"
       id="g4136"
       inkscape:transform-center-x="0.00078191768"
       inkscape:transform-center-y="0.00076352862">
      <path
         transform="matrix(0,-0.16666675,0.16666675,0,50.196836,49.015746)"
         d="m 92.125984,70.866135 a 10.629921,10.629921 0 1 1 -21.259842,0 10.629921,10.629921 0 1 1 21.259842,0 z"
         sodipodi:ry="10.629921"
         sodipodi:rx="10.629921"
         sodipodi:cy="70.866135"
         sodipodi:cx="81.496063"
         id="path4138"
         style="fill:none;stroke:none;display:inline"
         sodipodi:type="arc" />
      <path
         inkscape:connector-curvature="0"
         style="fill:#000000;fill-opacity:1;display:inline"
         d="m 62.011306,32.134449 c -1.94747,0 -3.46875,1.521325 -3.46875,3.46875 0,1.947426 1.52128,3.5 3.46875,3.5 1.94743,0 3.5,-1.552574 3.5,-3.5 0,-1.947425 -1.55257,-3.46875 -3.5,-3.46875 z m 0,3.03125 c 0.24503,0 0.46875,0.19247 0.46875,0.4375 0,0.245031 -0.22372,0.46875 -0.46875,0.46875 -0.24503,0 -0.4375,-0.223719 -0.4375,-0.46875 0,-0.24503 0.19247,-0.4375 0.4375,-0.4375 z"
         id="path4140" />
      <rect
         style="fill:#000000;fill-opacity:1;fill-rule:evenodd;stroke:#000000;stroke-width:0;stroke-linecap:butt;stroke-linejoin:miter;stroke-miterlimit:4;stroke-opacity:1;stroke-dasharray:none"
         id="rect4247"
         width="177.16536"
         height="70.866142"
         x="0"
         y="5.4066572e-07"
         inkscape:export-filename="/Volumes/jM/+Project/breadboard tap/folia+component.png"
         inkscape:export-xdpi="599.86334"
         inkscape:export-ydpi="599.86334"
         transform="translate(-38.565614,-26.793963)" />
    </g>
    <path
       style="fill:#ffffff;fill-opacity:1;fill-rule:evenodd;stroke:#ffffff;stroke-width:2.83464575;stroke-linejoin:round;stroke-miterlimit:4;stroke-opacity:1;stroke-dasharray:none;stroke-dashoffset:0"
       id="path4299"
       d=""
       inkscape:connector-curvature="0" />
    <path
       style="fill:none;stroke:#ffffff;stroke-width:2.83464575;stroke-linecap:butt;stroke-linejoin:round;stroke-miterlimit:4;stroke-opacity:1;stroke-dasharray:none"
       d="m 160.16379,104.1122 -0.11111,-28.796784 m -0.59064,24.697374 -12.40936,0.0526 0,-24.333334 m 32.11111,24.22225 -19.01971,0.0925 0.0703,42.84647 -97.332336,0.27854 0.0216,-15.19596 -16.83713,0.048 -0.0795,23.36365"
       id="path3153"
       inkscape:connector-curvature="0"
       sodipodi:nodetypes="cccccccccccc"
       inkscape:transform-center-x="-23.993506"
       inkscape:transform-center-y="-0.035157" />
    <path
       style="fill:none;stroke:#ffffff;stroke-width:6.69766188;stroke-linecap:butt;stroke-linejoin:round;stroke-miterlimit:4;stroke-opacity:1;stroke-dasharray:none"
       d="m 159.39821,113.50987 19.76558,0.11111"
       id="path3155"
       inkscape:connector-curvature="0"
       sodipodi:nodetypes="cc"
       inkscape:transform-center-x="-80.699104"
       inkscape:transform-center-y="0.178807" />
    <path
       style="fill:none;stroke:#ffffff;stroke-width:2.83464575;stroke-linecap:butt;stroke-linejoin:round;stroke-miterlimit:4;stroke-opacity:1;stroke-dasharray:none"
       d="m 159.67851,120.1114 -21.49388,0.006 0.0347,-28.718746 -117.324876,-0.06504 0.15854,57.898356"
       id="path3161"
       inkscape:connector-curvature="0"
       sodipodi:nodetypes="ccccc"
       inkscape:transform-center-x="-2.2527808"
       inkscape:transform-center-y="6.8962742" />
    <path
       transform="matrix(-1.7716535,0,0,-1.6784086,155.34927,182.08125)"
       d="m 22.111111,57.143921 a 1,1.0555556 0 1 1 -2,0 1,1.0555556 0 1 1 2,0 z"
       sodipodi:ry="1.0555556"
       sodipodi:rx="1"
       sodipodi:cy="57.143921"
       sodipodi:cx="21.111111"
       id="path4211"
       style="fill:#ffffff;fill-opacity:1;fill-rule:evenodd;stroke:#ffffff;stroke-width:0;stroke-linejoin:round;stroke-miterlimit:4;stroke-opacity:0.15555558;stroke-dasharray:none;stroke-dashoffset:0"
       sodipodi:type="arc"
       inkscape:transform-center-x="-29.365801"
       inkscape:transform-center-y="-27.216216" />
    <text
       xml:space="preserve"
       style="font-size:10px;font-style:normal;font-variant:normal;font-weight:normal;font-stretch:normal;text-align:start;line-height:125%;letter-spacing:0px;word-spacing:0px;writing-mode:lr-tb;text-anchor:start;fill:#ffffff;fill-opacity:1;stroke:#ffffff;stroke-width:0.30220509;stroke-linejoin:round;stroke-miterlimit:4;stroke-dasharray:none;font-family:Courier New;-inkscape-font-specification:Courier New"
       x="69.603394"
       y="135.06535"
       id="text4244"
       sodipodi:linespacing="125%"
       transform="scale(0.98042464,1.0199662)"
       inkscape:transform-center-x="14.810546"
       inkscape:transform-center-y="-19.87303"><tspan
         sodipodi:role="line"
         id="tspan4246"
         x="69.603394"
         y="135.06535"
         style="font-size:10px;font-style:normal;font-variant:normal;font-weight:normal;font-stretch:normal;text-align:start;line-height:125%;writing-mode:lr-tb;text-anchor:start;stroke-width:0.30220509;font-family:Courier New;-inkscape-font-specification:Courier New">hsbp.org/kits</tspan></text>
    <g
       id="g3896"
       transform="translate(80.237494,25.218857)">
      <path
         sodipodi:type="arc"
         style="fill:#ffffff;fill-opacity:1;fill-rule:evenodd;stroke:#ffffff;stroke-width:1.0629921;stroke-linejoin:round;stroke-miterlimit:4;stroke-opacity:1;stroke-dasharray:none;stroke-dashoffset:0"
         id="path3110"
         sodipodi:cx="21.111111"
         sodipodi:cy="57.143921"
         sodipodi:rx="1"
         sodipodi:ry="1.0555556"
         d="m 22.111111,57.143921 c 0,0.582967 -0.447716,1.055555 -1,1.055555 -0.552285,0 -1,-0.472588 -1,-1.055555 0,-0.582967 0.447715,-1.055556 1,-1.055556 0.552284,0 1,0.472589 1,1.055556 z"
         transform="translate(27.666667,41.508342)" />
      <path
         transform="translate(23.666667,41.508342)"
         d="m 22.111111,57.143921 c 0,0.582967 -0.447716,1.055555 -1,1.055555 -0.552285,0 -1,-0.472588 -1,-1.055555 0,-0.582967 0.447715,-1.055556 1,-1.055556 0.552284,0 1,0.472589 1,1.055556 z"
         sodipodi:ry="1.0555556"
         sodipodi:rx="1"
         sodipodi:cy="57.143921"
         sodipodi:cx="21.111111"
         id="path3120"
         style="fill:#ffffff;fill-opacity:1;fill-rule:evenodd;stroke:#ffffff;stroke-width:1.0629921;stroke-linejoin:round;stroke-miterlimit:4;stroke-opacity:1;stroke-dasharray:none;stroke-dashoffset:0"
         sodipodi:type="arc" />
      <path
         sodipodi:type="arc"
         style="fill:#ffffff;fill-opacity:1;fill-rule:evenodd;stroke:#ffffff;stroke-width:1.0629921;stroke-linejoin:round;stroke-miterlimit:4;stroke-opacity:1;stroke-dasharray:none;stroke-dashoffset:0"
         id="path3122"
         sodipodi:cx="21.111111"
         sodipodi:cy="57.143921"
         sodipodi:rx="1"
         sodipodi:ry="1.0555556"
         d="m 22.111111,57.143921 c 0,0.582967 -0.447716,1.055555 -1,1.055555 -0.552285,0 -1,-0.472588 -1,-1.055555 0,-0.582967 0.447715,-1.055556 1,-1.055556 0.552284,0 1,0.472589 1,1.055556 z"
         transform="translate(19.666667,41.508342)" />
      <path
         transform="translate(23.666667,33.508342)"
         d="m 22.111111,57.143921 c 0,0.582967 -0.447716,1.055555 -1,1.055555 -0.552285,0 -1,-0.472588 -1,-1.055555 0,-0.582967 0.447715,-1.055556 1,-1.055556 0.552284,0 1,0.472589 1,1.055556 z"
         sodipodi:ry="1.0555556"
         sodipodi:rx="1"
         sodipodi:cy="57.143921"
         sodipodi:cx="21.111111"
         id="path3124"
         style="fill:#ffffff;fill-opacity:1;fill-rule:evenodd;stroke:#ffffff;stroke-width:1.0629921;stroke-linejoin:round;stroke-miterlimit:4;stroke-opacity:1;stroke-dasharray:none;stroke-dashoffset:0"
         sodipodi:type="arc" />
      <path
         sodipodi:type="arc"
         style="fill:#ffffff;fill-opacity:1;fill-rule:evenodd;stroke:#ffffff;stroke-width:1.0629921;stroke-linejoin:round;stroke-miterlimit:4;stroke-opacity:1;stroke-dasharray:none;stroke-dashoffset:0"
         id="path3126"
         sodipodi:cx="21.111111"
         sodipodi:cy="57.143921"
         sodipodi:rx="1"
         sodipodi:ry="1.0555556"
         d="m 22.111111,57.143921 c 0,0.582967 -0.447716,1.055555 -1,1.055555 -0.552285,0 -1,-0.472588 -1,-1.055555 0,-0.582967 0.447715,-1.055556 1,-1.055556 0.552284,0 1,0.472589 1,1.055556 z"
         transform="translate(27.666667,37.508342)" />
    </g>
    <path
       transform="matrix(-2.6574803,0,0,-2.5176129,88.830893,277.58917)"
       d="m 22.111111,57.143921 a 1,1.0555556 0 1 1 -2,0 1,1.0555556 0 1 1 2,0 z"
       sodipodi:ry="1.0555556"
       sodipodi:rx="1"
       sodipodi:cy="57.143921"
       sodipodi:cx="21.111111"
       id="path4001"
       style="fill:#ffffff;fill-opacity:1;fill-rule:evenodd;stroke:#ffffff;stroke-width:0;stroke-linejoin:round;stroke-miterlimit:4;stroke-opacity:0.15555558;stroke-dasharray:none;stroke-dashoffset:0"
       sodipodi:type="arc"
       inkscape:transform-center-x="55.853363"
       inkscape:transform-center-y="20.33628" />
    <path
       sodipodi:type="arc"
       style="fill:#ffffff;fill-opacity:1;fill-rule:evenodd;stroke:#ffffff;stroke-width:0;stroke-linejoin:round;stroke-miterlimit:4;stroke-opacity:0.15555558;stroke-dasharray:none;stroke-dashoffset:0"
       id="path4003"
       sodipodi:cx="21.111111"
       sodipodi:cy="57.143921"
       sodipodi:rx="1"
       sodipodi:ry="1.0555556"
       d="m 22.111111,57.143921 a 1,1.0555556 0 1 1 -2,0 1,1.0555556 0 1 1 2,0 z"
       transform="matrix(-3.1889764,0,0,-3.0211354,100.07542,288.22725)"
       inkscape:transform-center-x="55.82931"
       inkscape:transform-center-y="2.2011099" />
    <path
       sodipodi:type="arc"
       style="fill:#ffffff;fill-opacity:1;fill-rule:evenodd;stroke:#ffffff;stroke-width:0;stroke-linejoin:round;stroke-miterlimit:4;stroke-opacity:0.15555558;stroke-dasharray:none;stroke-dashoffset:0"
       id="path4025"
       sodipodi:cx="21.111111"
       sodipodi:cy="57.143921"
       sodipodi:rx="1"
       sodipodi:ry="1.0555556"
       d="m 22.111111,57.143921 a 1,1.0555556 0 1 1 -2,0 1,1.0555556 0 1 1 2,0 z"
       transform="matrix(-1.7716535,0,0,-1.6784086,155.34927,199.85903)"
       inkscape:transform-center-x="-29.365801"
       inkscape:transform-center-y="-9.4384364" />
    <path
       transform="matrix(-1.7716535,0,0,-1.6784086,114.12705,199.97014)"
       d="m 22.111111,57.143921 a 1,1.0555556 0 1 1 -2,0 1,1.0555556 0 1 1 2,0 z"
       sodipodi:ry="1.0555556"
       sodipodi:rx="1"
       sodipodi:cy="57.143921"
       sodipodi:cx="21.111111"
       id="path4027"
       style="fill:#ffffff;fill-opacity:1;fill-rule:evenodd;stroke:#ffffff;stroke-width:0;stroke-linejoin:round;stroke-miterlimit:4;stroke-opacity:0.15555558;stroke-dasharray:none;stroke-dashoffset:0"
       sodipodi:type="arc"
       inkscape:transform-center-x="11.856419"
       inkscape:transform-center-y="-9.3273264" />
    <path
       sodipodi:type="arc"
       style="fill:#ffffff;fill-opacity:1;fill-rule:evenodd;stroke:#ffffff;stroke-width:0;stroke-linejoin:round;stroke-miterlimit:4;stroke-opacity:0.15555558;stroke-dasharray:none;stroke-dashoffset:0"
       id="path4029"
       sodipodi:cx="21.111111"
       sodipodi:cy="57.143921"
       sodipodi:rx="1"
       sodipodi:ry="1.0555556"
       d="m 22.111111,57.143921 a 1,1.0555556 0 1 1 -2,0 1,1.0555556 0 1 1 2,0 z"
       transform="matrix(-1.7716535,0,0,-1.6784086,114.12705,182.19236)"
       inkscape:transform-center-x="11.856419"
       inkscape:transform-center-y="-27.105106" />
    <path
       sodipodi:type="arc"
       style="fill:#ffffff;fill-opacity:1;fill-rule:evenodd;stroke:#ffffff;stroke-width:0;stroke-linejoin:round;stroke-miterlimit:4;stroke-opacity:0.15555558;stroke-dasharray:none;stroke-dashoffset:0"
       id="path4031"
       sodipodi:cx="21.111111"
       sodipodi:cy="57.143921"
       sodipodi:rx="1"
       sodipodi:ry="1.0555556"
       d="m 22.111111,57.143921 a 1,1.0555556 0 1 1 -2,0 1,1.0555556 0 1 1 2,0 z"
       transform="matrix(-1.7716535,0,0,-1.6784086,201.90482,187.74792)"
       inkscape:transform-center-x="-75.921351"
       inkscape:transform-center-y="-21.549547" />
    <path
       transform="matrix(-1.7716535,0,0,-1.6784086,193.12705,187.74792)"
       d="m 22.111111,57.143921 a 1,1.0555556 0 1 1 -2,0 1,1.0555556 0 1 1 2,0 z"
       sodipodi:ry="1.0555556"
       sodipodi:rx="1"
       sodipodi:cy="57.143921"
       sodipodi:cx="21.111111"
       id="path4033"
       style="fill:#ffffff;fill-opacity:1;fill-rule:evenodd;stroke:#ffffff;stroke-width:0;stroke-linejoin:round;stroke-miterlimit:4;stroke-opacity:0.15555558;stroke-dasharray:none;stroke-dashoffset:0"
       sodipodi:type="arc"
       inkscape:transform-center-x="-67.143581"
       inkscape:transform-center-y="-21.549547" />
    <path
       sodipodi:type="arc"
       style="fill:#ffffff;fill-opacity:1;fill-rule:evenodd;stroke:#ffffff;stroke-width:0;stroke-linejoin:round;stroke-miterlimit:4;stroke-opacity:0.15555558;stroke-dasharray:none;stroke-dashoffset:0"
       id="path4035"
       sodipodi:cx="21.111111"
       sodipodi:cy="57.143921"
       sodipodi:rx="1"
       sodipodi:ry="1.0555556"
       d="m 22.111111,57.143921 a 1,1.0555556 0 1 1 -2,0 1,1.0555556 0 1 1 2,0 z"
       transform="matrix(-1.7716535,0,0,-1.6784086,202.12705,231.97014)"
       inkscape:transform-center-x="-76.143581"
       inkscape:transform-center-y="22.672674" />
    <path
       transform="matrix(-1.7716535,0,0,-1.6784086,193.23816,231.97014)"
       d="m 22.111111,57.143921 a 1,1.0555556 0 1 1 -2,0 1,1.0555556 0 1 1 2,0 z"
       sodipodi:ry="1.0555556"
       sodipodi:rx="1"
       sodipodi:cy="57.143921"
       sodipodi:cx="21.111111"
       id="path4037"
       style="fill:#ffffff;fill-opacity:1;fill-rule:evenodd;stroke:#ffffff;stroke-width:0;stroke-linejoin:round;stroke-miterlimit:4;stroke-opacity:0.15555558;stroke-dasharray:none;stroke-dashoffset:0"
       sodipodi:type="arc"
       inkscape:transform-center-x="-67.254691"
       inkscape:transform-center-y="22.672674" />
    <path
       sodipodi:nodetypes="cc"
       inkscape:connector-curvature="0"
       id="path3881"
       d="m 100.61906,91.009426 -0.0325,-15.57679"
       style="fill:none;stroke:#ffffff;stroke-width:2.92417216;stroke-linecap:butt;stroke-linejoin:round;stroke-miterlimit:4;stroke-opacity:1;stroke-dasharray:none"
       inkscape:transform-center-x="-12.020914"
       inkscape:transform-center-y="-30.165587" />
    <path
       style="fill:none;stroke:#ffffff;stroke-width:2.92417216;stroke-linecap:butt;stroke-linejoin:round;stroke-miterlimit:4;stroke-opacity:1;stroke-dasharray:none"
       d="m 92.119064,91.009426 -0.0325,-15.57679"
       id="path3883"
       inkscape:connector-curvature="0"
       sodipodi:nodetypes="cc"
       inkscape:transform-center-x="-3.520918"
       inkscape:transform-center-y="-30.165587" />
    <rect
       style="fill:none;stroke:#ffffff;stroke-width:2.79071617;stroke-linecap:butt;stroke-linejoin:round;stroke-miterlimit:4;stroke-opacity:1;stroke-dasharray:none"
       id="rect3885"
       width="17.32662"
       height="10.810287"
       x="-63.089806"
       y="-117.58859"
       inkscape:transform-center-x="34.1554"
       inkscape:transform-center-y="-1.2031691"
       transform="scale(-1,-1)" />
  </g>
</svg>
